<?xml version="1.0" encoding="UTF-8"?>
<!DOCTYPE svg  PUBLIC '-//W3C//DTD SVG 1.1//EN'  'http://www.w3.org/Graphics/SVG/1.1/DTD/svg11.dtd' [
	<!ENTITY st0 "fill-rule:evenodd;clip-rule:evenodd;fill:#ED1C24;">
	<!ENTITY st1 "fill-rule:evenodd;clip-rule:evenodd;fill:#F79433;">
	<!ENTITY st2 "fill-rule:evenodd;clip-rule:evenodd;fill:#FFFFFF;">
]>
<svg enable-background="new 0 0 1000 555.2" version="1.1" viewBox="0 0 1000 555.2" xml:space="preserve" xmlns="http://www.w3.org/2000/svg">
<g clip-rule="evenodd" fill-rule="evenodd">
	<path d="m1e3 41.6c0-23-18.7-41.6-41.7-41.6h-916.6c-23 0-41.7 18.6-41.7 41.6v472c0 23 18.7 41.6 41.7 41.6h916.6c23 0 41.7-18.7 41.7-41.6v-472z" fill="#F79433"/>
		<path d="m374.9 354.7c-12-15.1-21.1-32.3-27-50.7h-2.4c-15.6 21.8-40.8 34.7-67.7 34.7-23.9 0-46.7-10.3-62.5-28.2v68.9c19.4 9.8 40.8 14.8 62.5 14.8 36.3 0.1 71.2-14.1 97.1-39.5zm125.1-127h-222.2v55.6h222.2v-55.6zm159.7 82.9v68.9c19.4 9.8 40.8 14.8 62.5 14.8 76.7 0 138.9-62.2 138.9-138.8s-62.2-138.8-138.9-138.8-138.9 62.2-138.9 138.8v228.3h55.6v-228.3c0-46 37.3-83.3 83.3-83.3s83.3 37.3 83.3 83.3-37.3 83.3-83.3 83.3c-23.9-0.1-46.7-10.3-62.5-28.2zm-62.6-154.4c-26-25.4-60.8-39.6-97.1-39.6-58 0-109.8 36-130.1 90.2h62.4c15.7-21.8 40.8-34.7 67.7-34.7 27.9 0 53.9 13.9 69.3 37.1 5.9-19.2 15.3-37.2 27.8-53zm-458.2 99.3v230.4h55.6v-230.4c0-46 37.3-83.3 83.3-83.3 26.8 0 52 12.9 67.7 34.7h2.4c5.9-18.4 15-35.5 27-50.7-26-25.4-60.8-39.6-97.1-39.6-76.7 0.1-138.9 62.2-138.9 138.9z" fill="#fff"/>
		<path d="m562.1 310.4c-15.8 17.9-38.6 28.2-62.5 28.2-26.8 0-52-12.9-67.7-34.7h-62.4c20.3 54.3 72.1 90.2 130.1 90.2 21.7 0 43.1-5.1 62.5-14.8v-68.9z" fill="#ED1C24"/>
</g>
</svg>
